<?xml version="1.0" encoding="UTF-8" standalone="no"?>
<!DOCTYPE svg PUBLIC "-//W3C//DTD SVG 1.1//EN" "http://www.w3.org/Graphics/SVG/1.1/DTD/svg11.dtd">
<svg xmlns="http://www.w3.org/2000/svg" xmlns:xlink="http://www.w3.org/1999/xlink" version="1.1" width="64pt" height="64pt" viewBox="0 0 64 64">
<g enable-background="new">
<path transform="matrix(1,0,0,-1,0,64)" d="M 58.28375 28.16375 C 59.379999 30.02 60 32 60 34.39375 C 60 39.895624 55.347749 45.091249 49.2725 45.091249 L 44.7125 45.091249 C 45.327505 46.692499 45.81875 48.6075 45.81875 50.90875 C 45.81875 60.008 41.1075 64 33.91 64 C 26.209126 64 26.648377 52.133378 24.94 50.425 C 22.096627 47.581628 18.738125 42.119127 16.345 40 L 4 40 C 1.790875 40 0 38.209127 0 36 L 0 6 C 0 3.790874 1.790875 2 4 2 L 12 2 C 13.861625 2 15.426 3.271751 15.87225 4.993752 C 21.435875 4.868626 25.25475 .001251 38.0975 .001251 C 39 .001251 40 0 40.875 0 C 50.514627 0 54.87325 4.927872 54.9925 11.916248 C 56.657377 14.219372 57.529878 17.3065 57.16 20.29 C 58.39175 22.5965 58.868 25.332875 58.28375 28.16375 Z M 50.565 21.435002 C 52.135 18.79375 50.7225 15.258751 48.8225 14.23875 C 49.785 8.141251 46.6215 6.001251 42.1825 6.001251 L 37.455 6.001251 C 28.500126 6.001251 22.701375 10.728748 16 10.728748 L 16 34 L 17.365 34 C 20.91 34 25.862502 42.86125 29.1825 46.182504 C 32.7275 49.7275 31.54625 55.63625 33.91 58 C 39.81875 58 39.81875 53.8775 39.81875 50.90875 C 39.81875 46.0125 36.27375 43.81875 36.27375 39.091249 L 49.2725 39.091249 C 51.911249 39.091249 53.98875 36.7275 54 34.36375 C 54.01125 32.00125 52.397504 29.6375 51.21625 29.6375 C 52.902379 27.818127 53.262624 23.983002 50.565 21.435002 Z M 11 10 C 11 8.343124 9.656875 7 8 7 C 6.343125 7 5 8.343124 5 10 C 5 11.656876 6.343125 13 8 13 C 9.656875 13 11 11.656876 11 10 Z " fill="#00a2ff"/>
</g>
</svg>
